<svg width="548" height="395" viewBox="0 0 548 395" fill="none" xmlns="http://www.w3.org/2000/svg">
<path opacity="0.6" d="M318.431 68.7988C283.363 67.5793 249.938 56.251 218.068 43.8594C186.199 31.4678 154.612 17.7358 120.365 11.1696C98.3466 6.94167 73.1653 6.34703 55.4276 18.1591C38.3547 29.5227 32.84 49.1406 29.8737 67.3424C27.6426 81.0392 26.3483 95.4515 32.4472 108.276C36.6927 117.176 44.227 124.659 49.4395 133.186C67.57 162.852 54.7527 199.437 35.1013 228.428C25.8849 242.034 15.193 254.98 8.08178 269.448C0.970593 283.915 -2.32311 300.489 3.9017 315.244C10.0711 329.858 24.7669 340.854 40.6915 348.579C73.0343 364.256 111.144 368.741 148.306 371.311C230.568 376.94 313.274 374.501 395.752 372.062C426.277 371.155 456.938 370.243 486.964 365.511C503.639 362.886 520.858 358.723 532.965 348.675C548.331 335.916 552.143 314.317 541.844 298.318C524.57 271.488 476.811 264.821 464.734 236.027C458.091 220.179 464.915 202.521 474.575 187.821C495.289 156.291 530.019 128.625 531.847 92.5791C533.106 67.8211 516.411 43.0329 490.595 31.3166C463.54 19.0258 426.02 20.5779 406.062 40.8913C385.509 61.8194 349.389 69.8721 318.431 68.7988Z" fill="#587EEC"/>
<path d="M118.436 365.36C118.436 365.36 90.7368 344.407 85.5042 317.754C83.3822 306.56 77.6903 296.356 69.2824 288.672C65.2602 285.058 60.9159 281.819 56.304 278.997" stroke="#9AB1F3" stroke-width="2" stroke-miterlimit="10"/>
<path d="M52.9146 262.206C55.342 265.492 56.4399 279.415 56.4399 279.415C56.4399 279.415 43.4615 274.301 41.029 271.02C39.8609 269.443 39.3668 267.466 39.6554 265.525C39.9439 263.583 40.9915 261.836 42.5676 260.667C44.1437 259.498 46.1193 259.004 48.0597 259.292C50.0002 259.581 51.7465 260.629 52.9146 262.206Z" fill="#587EEC"/>
<path d="M76.1922 273.131C76.4441 277.208 69.8113 289.494 69.8113 289.494C69.8113 289.494 61.6878 278.135 61.431 274.059C61.3333 272.115 62.0049 270.211 63.3003 268.76C64.5957 267.308 66.4105 266.426 68.3515 266.304C70.2925 266.182 72.2034 266.83 73.6701 268.108C75.1368 269.386 76.0411 271.191 76.1872 273.131H76.1922Z" fill="#587EEC"/>
<path d="M98.7545 304.536C96.9213 308.185 84.9905 315.441 84.9905 315.441C84.9905 315.441 83.7163 301.533 85.5495 297.884C86.4519 296.169 87.9914 294.876 89.8368 294.284C91.6821 293.693 93.6857 293.85 95.4164 294.722C97.1472 295.594 98.4667 297.111 99.091 298.946C99.7153 300.782 99.5944 302.789 98.7545 304.536Z" fill="#587EEC"/>
<path d="M110.484 332.131C109.29 336.037 98.7595 345.203 98.7595 345.203C98.7595 345.203 95.1485 331.713 96.3421 327.802C96.9158 325.926 98.2109 324.354 99.9426 323.434C101.674 322.513 103.701 322.318 105.576 322.892C107.451 323.466 109.022 324.762 109.942 326.494C110.863 328.227 111.058 330.255 110.484 332.131Z" fill="#587EEC"/>
<path d="M57.8048 299.371C61.8338 299.915 74.5705 294.16 74.5705 294.16C74.5705 294.16 63.8231 285.251 59.774 284.707C57.8305 284.445 55.863 284.967 54.3041 286.158C52.7452 287.348 51.7228 289.109 51.4616 291.054C51.2005 292.998 51.7221 294.967 52.9117 296.527C54.1012 298.087 55.8614 299.11 57.8048 299.371Z" fill="#587EEC"/>
<path d="M71.9314 331.476C75.9604 330.786 86.3703 321.488 86.3703 321.488C86.3703 321.488 73.4473 316.207 69.4233 316.897C68.4599 317.055 67.5373 317.403 66.7088 317.92C65.8802 318.436 65.1622 319.112 64.5961 319.908C64.0299 320.704 63.6269 321.604 63.4103 322.556C63.1937 323.509 63.1678 324.495 63.3341 325.458C63.5003 326.42 63.8555 327.34 64.379 328.165C64.9026 328.989 65.5842 329.702 66.3844 330.261C67.1847 330.821 68.0877 331.216 69.0415 331.425C69.9953 331.633 70.9809 331.651 71.9415 331.476H71.9314Z" fill="#587EEC"/>
<path d="M89.936 360.8C94.0204 360.8 105.856 353.397 105.856 353.397C105.856 353.397 94.0153 346.004 89.9309 346.004C87.9701 346.004 86.0896 346.784 84.7031 348.171C83.3166 349.558 82.5377 351.44 82.5377 353.402C82.5377 355.364 83.3166 357.245 84.7031 358.633C86.0896 360.02 87.9701 360.8 89.9309 360.8H89.936Z" fill="#587EEC"/>
<path d="M387.523 184.133C387.523 184.133 404.596 153.872 430.331 145.154C441.138 141.563 450.489 134.563 456.983 125.203C460.029 120.729 462.657 115.984 464.835 111.028" stroke="#9AB1F3" stroke-width="2" stroke-miterlimit="10"/>
<path d="M480.991 105.485C478.06 108.327 464.417 111.27 464.417 111.27C464.417 111.27 467.766 97.7141 470.697 94.8669C472.112 93.5415 473.99 92.825 475.928 92.8716C477.865 92.9183 479.707 93.7243 481.056 95.1162C482.406 96.5081 483.155 98.3746 483.143 100.314C483.131 102.253 482.358 104.11 480.991 105.485Z" fill="#587EEC"/>
<path d="M473.275 129.991C469.246 130.787 456.218 125.838 456.218 125.838C456.218 125.838 466.391 116.264 470.395 115.483C471.356 115.269 472.35 115.25 473.319 115.426C474.288 115.603 475.212 115.971 476.037 116.509C476.861 117.048 477.57 117.746 478.122 118.562C478.673 119.378 479.056 120.297 479.248 121.263C479.44 122.229 479.437 123.225 479.239 124.19C479.041 125.155 478.653 126.071 478.097 126.884C477.54 127.697 476.827 128.391 475.999 128.924C475.171 129.458 474.245 129.82 473.275 129.991Z" fill="#587EEC"/>
<path d="M445.193 156.538C441.336 155.202 432.567 144.338 432.567 144.338C432.567 144.338 446.165 141.223 450.033 142.559C450.962 142.867 451.821 143.357 452.56 144.001C453.298 144.644 453.902 145.427 454.335 146.306C454.768 147.184 455.023 148.14 455.084 149.118C455.145 150.096 455.012 151.076 454.691 152.002C454.371 152.927 453.87 153.78 453.217 154.511C452.565 155.241 451.774 155.834 450.89 156.256C450.006 156.678 449.048 156.921 448.07 156.969C447.092 157.017 446.114 156.871 445.193 156.538Z" fill="#587EEC"/>
<path d="M419.388 171.837C415.359 171.172 404.903 161.925 404.903 161.925C404.903 161.925 417.791 156.553 421.815 157.218C423.752 157.537 425.483 158.612 426.627 160.208C427.771 161.804 428.235 163.789 427.916 165.727C427.598 167.665 426.523 169.397 424.928 170.541C423.334 171.686 421.35 172.151 419.413 171.832L419.388 171.837Z" fill="#587EEC"/>
<path d="M444.841 115.241C444.836 119.328 452.244 131.185 452.244 131.185C452.244 131.185 459.642 119.343 459.642 115.261C459.668 114.274 459.496 113.291 459.136 112.371C458.776 111.451 458.236 110.613 457.547 109.906C456.859 109.198 456.035 108.636 455.126 108.252C454.216 107.868 453.239 107.67 452.252 107.67C451.265 107.67 450.288 107.868 449.378 108.252C448.469 108.636 447.645 109.198 446.956 109.906C446.267 110.613 445.727 111.451 445.367 112.371C445.007 113.291 444.835 114.274 444.861 115.261L444.841 115.241Z" fill="#587EEC"/>
<path d="M414.91 133.513C416.129 137.414 426.725 146.509 426.725 146.509C426.725 146.509 430.251 132.994 429.022 129.094C428.385 127.287 427.071 125.798 425.359 124.94C423.646 124.082 421.668 123.923 419.84 124.496C418.013 125.069 416.478 126.329 415.561 128.011C414.643 129.693 414.414 131.665 414.92 133.513H414.91Z" fill="#587EEC"/>
<path d="M388.284 155.268C388.828 159.299 397.732 170.068 397.732 170.068C397.732 170.068 403.478 157.344 402.934 153.297C402.826 152.317 402.523 151.368 402.044 150.506C401.564 149.645 400.917 148.888 400.14 148.28C399.364 147.672 398.474 147.226 397.522 146.968C396.571 146.709 395.577 146.644 394.6 146.775C393.623 146.907 392.683 147.232 391.833 147.733C390.984 148.234 390.243 148.899 389.655 149.69C389.066 150.482 388.641 151.383 388.406 152.341C388.171 153.298 388.129 154.294 388.284 155.268Z" fill="#587EEC"/>
<path opacity="0.25" d="M480.991 105.485C478.06 108.327 464.417 111.27 464.417 111.27C464.417 111.27 467.766 97.7141 470.697 94.8669C472.112 93.5415 473.99 92.825 475.928 92.8716C477.865 92.9183 479.707 93.7243 481.056 95.1162C482.406 96.5081 483.155 98.3746 483.143 100.314C483.131 102.253 482.358 104.11 480.991 105.485Z" fill="black"/>
<path opacity="0.25" d="M473.275 129.991C469.246 130.787 456.218 125.838 456.218 125.838C456.218 125.838 466.391 116.264 470.395 115.483C471.356 115.269 472.35 115.25 473.319 115.426C474.288 115.603 475.212 115.971 476.037 116.509C476.861 117.048 477.57 117.746 478.122 118.562C478.673 119.378 479.056 120.297 479.248 121.263C479.44 122.229 479.437 123.225 479.239 124.19C479.041 125.155 478.653 126.071 478.097 126.884C477.54 127.697 476.827 128.391 475.999 128.924C475.171 129.458 474.245 129.82 473.275 129.991Z" fill="black"/>
<path opacity="0.25" d="M445.193 156.538C441.336 155.202 432.567 144.338 432.567 144.338C432.567 144.338 446.165 141.223 450.033 142.559C450.962 142.867 451.821 143.357 452.56 144.001C453.298 144.644 453.902 145.427 454.335 146.306C454.768 147.184 455.023 148.14 455.084 149.118C455.145 150.096 455.012 151.076 454.691 152.002C454.371 152.927 453.87 153.78 453.217 154.511C452.565 155.241 451.774 155.834 450.89 156.256C450.006 156.678 449.048 156.921 448.07 156.969C447.092 157.017 446.114 156.871 445.193 156.538Z" fill="black"/>
<path opacity="0.25" d="M419.388 171.837C415.359 171.172 404.903 161.925 404.903 161.925C404.903 161.925 417.791 156.553 421.815 157.218C423.752 157.537 425.483 158.612 426.627 160.208C427.771 161.804 428.235 163.789 427.916 165.727C427.598 167.665 426.523 169.397 424.928 170.541C423.334 171.686 421.35 172.151 419.413 171.832L419.388 171.837Z" fill="black"/>
<path opacity="0.25" d="M444.841 115.241C444.836 119.328 452.244 131.185 452.244 131.185C452.244 131.185 459.642 119.343 459.642 115.261C459.668 114.274 459.496 113.291 459.136 112.371C458.776 111.451 458.236 110.613 457.547 109.906C456.859 109.198 456.035 108.636 455.126 108.252C454.216 107.868 453.239 107.67 452.252 107.67C451.265 107.67 450.288 107.868 449.378 108.252C448.469 108.636 447.645 109.198 446.956 109.906C446.267 110.613 445.727 111.451 445.367 112.371C445.007 113.291 444.835 114.274 444.861 115.261L444.841 115.241Z" fill="black"/>
<path opacity="0.25" d="M414.91 133.513C416.129 137.414 426.725 146.509 426.725 146.509C426.725 146.509 430.251 132.994 429.022 129.094C428.385 127.287 427.071 125.798 425.359 124.94C423.646 124.082 421.668 123.923 419.84 124.496C418.013 125.069 416.478 126.329 415.561 128.011C414.643 129.693 414.414 131.665 414.92 133.513H414.91Z" fill="black"/>
<path opacity="0.25" d="M388.284 155.268C388.828 159.299 397.732 170.068 397.732 170.068C397.732 170.068 403.478 157.344 402.934 153.297C402.826 152.317 402.523 151.368 402.044 150.506C401.564 149.645 400.917 148.888 400.14 148.28C399.364 147.672 398.474 147.226 397.522 146.968C396.571 146.709 395.577 146.644 394.6 146.775C393.623 146.907 392.683 147.232 391.833 147.733C390.984 148.234 390.243 148.899 389.655 149.69C389.066 150.482 388.641 151.383 388.406 152.341C388.171 153.298 388.129 154.294 388.284 155.268Z" fill="black"/>
<path d="M388.505 183.533C388.505 183.533 391.859 148.943 411.833 130.55C420.258 122.884 425.972 112.693 428.12 101.504C429.098 96.1844 429.585 90.7865 429.576 85.3781" stroke="#9AB1F3" stroke-width="2" stroke-miterlimit="10"/>
<path d="M442.096 73.7071C440.585 77.4966 429.284 85.7207 429.284 85.7207C429.284 85.7207 426.856 71.9685 428.382 68.179C429.117 66.3594 430.544 64.9063 432.349 64.1394C434.155 63.3724 436.191 63.3546 438.009 64.0896C439.828 64.8247 441.28 66.2525 442.046 68.059C442.813 69.8654 442.831 71.9026 442.096 73.7222V73.7071Z" fill="#587EEC"/>
<path d="M444.972 99.2663C441.633 101.615 427.697 102.386 427.697 102.386C427.697 102.386 433.126 89.5153 436.465 87.167C437.257 86.574 438.16 86.146 439.12 85.9083C440.08 85.6707 441.078 85.6283 442.055 85.7835C443.032 85.9388 443.968 86.2886 444.807 86.8123C445.647 87.3359 446.372 88.0227 446.942 88.8321C447.511 89.6414 447.912 90.5569 448.121 91.5241C448.331 92.4914 448.344 93.4909 448.16 94.4633C447.976 95.4358 447.6 96.3615 447.052 97.1857C446.504 98.0098 445.797 98.7156 444.972 99.2612V99.2663Z" fill="#587EEC"/>
<path d="M430.034 134.934C425.965 135.277 413.546 128.887 413.546 128.887C413.546 128.887 424.726 120.522 428.795 120.179C430.75 120.015 432.689 120.634 434.187 121.9C435.685 123.167 436.619 124.977 436.783 126.932C436.947 128.887 436.329 130.828 435.063 132.326C433.797 133.825 431.988 134.76 430.034 134.924V134.934Z" fill="#587EEC"/>
<path d="M412.654 159.37C408.701 160.378 395.385 156.21 395.385 156.21C395.385 156.21 404.989 146.076 408.943 145.048C410.841 144.556 412.856 144.838 414.546 145.832C416.237 146.827 417.463 148.453 417.955 150.352C418.447 152.251 418.165 154.268 417.171 155.959C416.177 157.65 414.552 158.877 412.654 159.37Z" fill="#587EEC"/>
<path d="M413.007 97.311C414.659 101.045 426.212 108.901 426.212 108.901C426.212 108.901 428.176 95.0735 426.524 91.3394C425.701 89.5924 424.228 88.2367 422.419 87.5622C420.61 86.8876 418.61 86.9476 416.844 87.7293C415.079 88.5111 413.69 89.9526 412.973 91.7458C412.256 93.539 412.268 95.5418 413.007 97.3261V97.311Z" fill="#587EEC"/>
<path d="M393.043 126.146C395.737 129.215 409.104 133.236 409.104 133.236C409.104 133.236 406.847 119.454 404.153 116.385C403.517 115.639 402.739 115.028 401.865 114.585C400.991 114.143 400.037 113.879 399.06 113.809C398.083 113.738 397.102 113.863 396.173 114.175C395.245 114.488 394.388 114.982 393.652 115.629C392.915 116.275 392.315 117.062 391.886 117.943C391.456 118.824 391.205 119.781 391.149 120.76C391.092 121.738 391.23 122.718 391.556 123.643C391.881 124.568 392.386 125.418 393.043 126.146Z" fill="#587EEC"/>
<path d="M377.486 156.845C379.621 160.322 392.116 166.546 392.116 166.546C392.116 166.546 392.222 152.582 390.102 149.1C389.046 147.492 387.407 146.359 385.53 145.94C383.654 145.522 381.688 145.852 380.05 146.859C378.413 147.867 377.232 149.473 376.758 151.337C376.284 153.201 376.554 155.177 377.511 156.845H377.486Z" fill="#587EEC"/>
<path d="M362.82 48.0723C363.656 45.0034 364.664 41.9194 365.369 38.8101C364.523 41.9194 363.51 45.0135 362.82 48.0723Z" fill="url(#paint0_linear_4_6)"/>
<path d="M359.073 77.6327C359.003 77.5117 358.953 77.3908 358.897 77.2799C358.897 77.2295 358.847 77.1892 358.827 77.1388C358.717 77.1906 358.604 77.2361 358.489 77.2749C358.268 77.3606 358.041 77.4412 357.809 77.5067C357.578 77.5722 357.482 77.6075 357.306 77.6478C357.16 77.6982 357.01 77.7369 356.857 77.7637L356.898 77.8544C357.084 77.8141 357.265 77.7788 357.452 77.7284L357.502 78.3533C357.714 78.3533 357.91 78.3231 358.101 78.3231C358.192 78.3181 358.283 78.3181 358.373 78.3231C358.766 78.3231 359.109 78.3231 359.381 78.3231C359.275 78.0963 359.164 77.8594 359.073 77.6327ZM461.309 240.467C458.942 237.277 454.218 203.04 454.218 203.04C454.218 203.04 444.926 178.695 447.46 168.98C449.993 159.264 440.54 134.405 440.54 134.405C440.54 134.405 434.295 131.689 433.957 127.658C433.957 127.658 408.459 119.595 407.265 113.548C406.298 108.589 390.485 105.031 384.804 103.907C383.071 96.9129 381.329 90.3871 380.044 86.8243C379.697 85.7157 379.37 84.7582 379.067 84.0023C376.897 78.4591 370.188 77.9552 365.323 78.3986C365.113 77.4539 364.721 76.5589 364.17 75.7631C364.09 75.4895 363.93 75.2458 363.712 75.0626C363.607 74.9736 363.496 74.8927 363.379 74.8208C363.291 74.6574 363.175 74.5108 363.037 74.3874C362.899 74.2628 362.747 74.1546 362.584 74.0649C362.467 74.0015 362.345 73.946 362.221 73.8986C361.929 73.7874 361.627 73.7047 361.32 73.6516C360.961 73.5778 360.597 73.5307 360.232 73.5106C361.121 73.1215 361.913 72.5417 362.553 71.8123C362.989 71.3002 363.313 70.703 363.505 70.0586C363.665 69.5228 363.736 68.9646 363.717 68.4058C363.586 68.636 363.434 68.8537 363.264 69.0558C363.475 66.8234 362.297 64.5557 361.622 62.3334C360.804 59.4403 360.653 56.3993 361.179 53.4391C361.853 48.9743 363.525 44.4591 364.659 39.9137C364.661 39.8886 364.661 39.8632 364.659 39.8381C365.253 37.5808 365.621 35.2697 365.757 32.9393C365.953 28.2377 364.749 23.5461 362.815 19.2628C361.098 15.4682 358.565 11.7341 354.687 10.1921C351.806 9.02799 348.578 9.21444 345.476 9.02295C338.515 8.58957 331.878 6.14048 325.26 3.91312C318.642 1.68576 311.833 -0.340025 304.868 0.0479989C297.903 0.436023 290.736 3.79722 287.559 9.96529C286.551 11.8903 285.972 14.032 284.769 15.8411C282.512 19.2527 278.473 20.961 275.104 23.3143C271.735 25.6677 268.768 29.0087 267.55 32.9948C266.884 35.1423 266.79 37.4265 267.278 39.6214C267.387 40.1171 267.529 40.6052 267.701 41.0828C268.179 42.4143 268.924 43.6337 269.891 44.6657C270.621 45.4285 271.459 46.0789 272.379 46.5958C273.535 47.2366 274.771 47.718 276.056 48.0269C276.01 48.1781 275.965 48.3394 275.915 48.4956C275.834 48.7526 275.764 48.9995 275.688 49.2767C275.522 49.8965 275.366 50.5264 275.235 51.1614C275.23 51.2066 275.23 51.2522 275.235 51.2974C274.616 54.1637 274.306 57.088 274.308 60.0204C274.307 61.4072 274.378 62.7932 274.52 64.1728C276.534 84.6221 293.406 100.753 314.251 101.801C314.966 101.836 315.686 101.856 316.416 101.856C316.749 101.856 317.076 101.856 317.424 101.856C317.751 102.29 318.073 102.733 318.38 103.167C318.688 103.6 318.97 104.044 319.237 104.477L318.506 103.721L317.776 103.051C317.578 103.323 317.357 103.577 317.116 103.812C316.64 103.644 316.154 103.506 315.661 103.398C313.571 102.935 310.388 102.764 306.198 104.028C302.345 105.182 297.636 107.556 292.127 112.066L265.278 128.192L250.754 137.031L245.521 149.83C245.521 149.83 241.588 165.039 237.211 182.465C237.04 182.515 236.874 182.565 236.708 182.626C236.353 182.586 235.997 182.565 235.64 182.565C233.101 182.56 230.658 183.538 228.825 185.297C226.992 187.055 225.911 189.455 225.809 191.994C217.106 202.576 216.613 213.159 218.658 218.017C218.843 218.472 219.076 218.906 219.353 219.312C220.692 221.247 223.195 226.236 225.734 231.552C225.668 231.991 225.628 232.359 225.608 232.636C225.603 232.726 225.603 232.817 225.608 232.908C225.608 232.908 227.119 255.741 222.082 262.287C220.979 263.713 221.146 265.588 222.082 267.664C225.457 275.132 238.798 285.105 238.798 285.105C238.798 285.105 254.798 285.019 263.712 284.046C263.687 284.943 263.667 285.835 263.646 286.707C263.445 295.516 263.445 302.898 263.445 302.898L263.113 312.135C263.113 312.135 260.091 331.602 258.58 336.969C257.628 340.335 258.726 371.503 259.683 394.417H417.328C419.181 380.861 416.567 339.675 416.567 339.675C416.567 339.675 414.084 329.027 413.994 319.745C413.989 319.734 413.986 319.723 413.986 319.712C413.986 319.701 413.989 319.689 413.994 319.679C413.994 318.868 413.994 318.077 414.024 317.301L415.167 317.26L417.222 317.19H417.408C417.408 317.19 417.459 316.998 417.575 316.686C417.846 315.908 418.217 315.167 418.677 314.484C419.554 313.189 420.924 311.919 422.983 311.833C424.122 311.788 425.884 310.865 427.874 309.505C427.887 309.508 427.901 309.508 427.914 309.505C433.268 305.882 440.343 299.194 442.061 298.096C444.423 296.584 455.734 286.506 455.734 286.506C455.734 286.506 457.421 284.369 459.219 281.794L459.285 281.703C461.521 278.478 463.898 274.623 463.314 273.408C462.307 271.232 463.989 266.026 463.989 266.026C469.241 256.406 463.676 243.657 461.309 240.467ZM363.923 85.4688C363.972 85.6192 364.002 85.7748 364.014 85.9324C363.888 85.7661 363.762 85.5897 363.636 85.4284L363.515 85.2672L363.43 85.1462L363.621 84.8842C363.621 84.8842 363.621 84.8842 363.621 84.9195C363.754 85.0828 363.857 85.2689 363.923 85.4688ZM362.231 81.004C361.682 81.1148 361.249 81.2156 360.967 81.2912C360.609 80.6562 360.267 80.0213 359.96 79.3763C360.767 79.845 361.528 80.39 362.231 81.004ZM361.284 81.8002C361.283 81.7901 361.283 81.7799 361.284 81.7699L361.325 81.8002C361.531 81.9362 361.733 82.0672 361.919 82.2033C362.085 82.3242 362.236 82.4401 362.387 82.5611C362.287 82.7375 362.176 82.9189 362.065 83.065C361.889 82.7878 361.723 82.5208 361.561 82.2436C361.461 82.1328 361.37 81.9816 361.284 81.8002ZM358.263 75.5817C359.236 75.4856 360.216 75.4856 361.189 75.5817C361.325 75.5817 361.445 75.6069 361.566 75.627C361.839 75.6693 362.108 75.7385 362.367 75.8337C362.962 76.6668 363.329 77.6416 363.43 78.6607L363.158 78.701L362.891 78.7514C362.387 78.8371 361.884 78.9227 361.491 79.0034L360.987 79.1092C360.317 79.2553 359.93 79.3662 359.914 79.3712C359.849 79.2352 359.784 79.1092 359.713 78.9782C359.602 78.7615 359.486 78.5397 359.386 78.3231C359.285 78.1064 359.154 77.8594 359.048 77.6327C358.978 77.5117 358.927 77.3908 358.872 77.2799C358.872 77.2295 358.822 77.1892 358.801 77.1388C358.772 77.0854 358.747 77.0298 358.726 76.9725C358.419 76.3477 358.137 75.7228 357.865 75.108C357.835 75.0475 357.809 74.982 357.784 74.9215L358.167 74.8963V75.0274L358.263 75.5817ZM238.103 388.188C238.062 380.685 237.518 372.566 236.008 364.947C235.363 361.707 234.698 358.466 234.023 355.282C233.852 354.485 233.686 353.699 233.52 352.913L231.968 353.12H231.827C227.597 333.159 223.175 315.572 223.175 315.572C223.175 315.572 214.392 282.016 215.409 279.34C215.54 278.992 215.374 278.055 215.001 276.679C212.876 269.049 204.002 248.026 200.9 240.84C200.9 240.809 200.875 240.774 200.865 240.749C200.361 239.545 199.998 238.733 199.888 238.496L200.618 227.773L200.658 227.128L200.754 225.757L200.713 225.722L200.754 225.087C200.754 225.087 193.089 218.798 180.105 214.257C179.601 214.076 179.068 213.9 178.539 213.728C179.189 209.39 180.05 204.491 181.173 199.719C181.279 199.24 181.394 198.777 181.515 198.308C181.621 197.84 181.742 197.386 181.863 196.927C182.054 196.182 182.261 195.446 182.472 194.72C183.172 194.498 183.862 194.252 184.542 193.99L184.804 193.889C193.18 190.628 200.091 184.44 204.258 176.472C208.424 168.504 209.565 159.296 207.467 150.551C206.271 145.592 204.063 140.933 200.98 136.869C200.749 136.557 200.502 136.244 200.255 135.937C200.008 135.63 199.711 135.287 199.434 134.975C200.89 131.664 202.607 128.514 202.748 125.294C202.773 124.886 202.773 124.477 202.748 124.07V124.019C202.562 121.948 201.645 119.852 199.51 117.65C196.392 114.419 191.955 112.782 187.518 111.995C183.082 111.209 178.559 111.189 174.097 110.66C166.699 109.773 159.492 107.49 152.093 106.79C142.981 105.946 133.806 107.509 125.487 111.325C119.982 113.845 114.407 118.249 114.075 124.291C113.803 129.285 117.278 134.073 116.402 139.006C115.53 143.854 110.595 147.669 111.028 152.572C111.194 154.487 112.176 156.2 113.405 157.727C113.828 158.231 114.276 158.735 114.74 159.239C116.532 161.139 118.507 162.963 119.509 165.356C119.549 165.457 119.589 165.558 119.625 165.659C120.476 168.022 120.093 171.01 117.988 172.366C118 172.375 118.008 172.387 118.013 172.401C118.043 172.442 118.074 172.472 118.099 172.512C118.102 172.504 118.102 172.495 118.099 172.487C118.845 173.372 119.851 174 120.974 174.281L121.403 174.412C121.055 174.79 120.728 175.183 120.395 175.596L120.179 175.883C119.624 176.63 119.119 177.413 118.668 178.227C118.411 178.68 118.164 179.134 117.958 179.587C117.267 180.97 116.768 182.439 116.472 183.956C115.933 187.292 116.694 190.769 115.878 194.035C114.871 198.066 111.683 201.16 109.885 204.905C106.48 211.96 108.409 220.239 109.094 228.03C110.026 238.612 108.515 249.24 107.009 259.752C106.21 265.342 105.411 270.938 104.612 276.538C102.597 290.594 100.583 304.65 98.5682 318.707C97.8329 323.857 96.9616 329.289 93.5319 333.265H93.5672C93.5672 333.265 93.5672 333.295 93.5319 333.305C94.5615 333.756 95.6565 334.038 96.7753 334.142C101.252 334.59 105.997 332.423 110.026 330.055C113.216 328.21 116.238 326.087 119.056 323.711C118.643 325.222 118.199 326.87 117.726 328.644C117.728 328.661 117.728 328.678 117.726 328.694C112.04 350.363 102.894 390.088 102.894 390.088C102.894 390.088 102.063 391.816 100.986 394.391H243.008C241.346 392.376 239.8 390.446 238.591 388.889L238.103 388.188ZM132.946 187.826C132.981 187.766 133.006 187.711 133.041 187.655C133.041 187.816 133.041 187.973 133.041 188.124C133.041 188.275 133.041 188.411 133.041 188.552C133.041 188.693 133.041 188.678 133.041 188.749C133.041 188.749 133.041 188.819 133.041 188.749C133.041 188.955 132.996 189.162 132.961 189.369C132.961 189.369 132.961 189.394 132.961 189.414L133.464 189.6L134.049 189.842C137.5 191.206 140.995 192.441 144.534 193.546C144.897 193.662 145.264 193.773 145.632 193.879L145.708 194.504C145.798 195.144 145.884 195.794 145.964 196.444C145.964 196.444 145.964 196.474 145.964 196.494C146.191 198.293 146.413 200.087 146.609 201.841C146.609 201.841 137.362 198.313 137.478 203.67C137.473 203.766 137.473 203.862 137.478 203.957C137.468 204.085 137.468 204.213 137.478 204.34C137.564 208.513 138.868 210.987 139.13 212.257C139.114 212.309 139.087 212.358 139.05 212.398C138.826 212.884 138.749 213.426 138.828 213.955C138.819 214.857 138.89 215.757 139.04 216.646C138.768 216.812 138.501 216.979 138.234 217.15C138.032 217.276 137.841 217.417 137.644 217.558C136.409 213.27 134.793 209.101 132.815 205.101C131.43 202.249 129.874 199.276 129.889 196.146C129.889 195.945 129.889 195.738 129.914 195.532C129.97 194.625 130.143 193.729 130.428 192.866C130.543 192.538 130.669 192.216 130.81 191.898C131.139 191.144 131.508 190.407 131.913 189.691C132.175 189.217 132.452 188.749 132.719 188.275C132.805 188.134 132.885 187.988 132.966 187.847L132.946 187.826ZM359.073 77.6327C359.003 77.5117 358.953 77.3908 358.897 77.2799C358.897 77.2295 358.847 77.1892 358.827 77.1388C358.717 77.1906 358.604 77.2361 358.489 77.2749C358.268 77.3606 358.041 77.4412 357.809 77.5067C357.578 77.5722 357.482 77.6075 357.306 77.6478L356.857 77.7637L356.898 77.8544C357.084 77.8141 357.265 77.7788 357.452 77.7284L357.502 78.3533C357.714 78.3533 357.91 78.3231 358.101 78.3231H358.373C358.766 78.3231 359.109 78.3231 359.381 78.3231C359.275 78.0963 359.164 77.8594 359.073 77.6327Z" fill="url(#paint1_linear_4_6)"/>
<path d="M249.031 151.65L246.01 152.985C246.01 152.985 226.313 229.552 226.313 235.74C226.313 241.928 268.078 276.362 268.078 276.362L274.595 232.348C274.595 232.348 265.238 131.417 249.031 151.65Z" fill="#E8F5FF"/>
<path d="M340.646 127.295L323.195 118.184C322.218 114.014 320.483 110.06 318.078 106.518C315.525 102.829 312.13 99.2058 307.9 97.316C297.208 92.5187 353.125 67.3374 353.125 67.3374C354.006 70.3624 355.043 73.3396 356.233 76.2569C359.114 83.3724 363.893 92.5741 370.052 95.1945C380.523 99.6543 340.646 127.295 340.646 127.295Z" fill="#FFB0B1"/>
<path opacity="0.1" d="M356.233 76.2569C353.844 84.6649 348.875 92.1095 342.029 97.5393C335.183 102.969 326.805 106.11 318.078 106.518C315.525 102.829 312.13 99.2058 307.9 97.316C297.208 92.5186 353.125 67.3374 353.125 67.3374C354.006 70.3624 355.043 73.3396 356.233 76.2569Z" fill="black"/>
<path d="M357.804 63.5429C357.806 71.789 355.364 79.8505 350.787 86.7078C346.21 93.5651 339.703 98.9102 332.09 102.067C324.476 105.224 316.098 106.051 308.015 104.443C299.932 102.835 292.507 98.8645 286.68 93.0339C280.852 87.2034 276.883 79.7745 275.275 71.6869C273.667 63.5992 274.492 55.2161 277.646 47.5977C280.8 39.9794 286.141 33.4681 292.994 28.8873C299.847 24.3065 307.903 21.862 316.144 21.863C321.622 21.8377 327.05 22.8984 332.116 24.984C337.181 27.0695 341.784 30.1386 345.657 34.0139C349.531 37.8893 352.598 42.494 354.683 47.5624C356.768 52.6307 357.829 58.0621 357.804 63.5429Z" fill="#FFB0B1"/>
<path d="M363.817 121.943L352.456 148.47L342.434 166.077H310.353L300.995 142.004L304.788 117.04H329.289L345.108 116.148L350.451 114.364L353.896 116.319L363.817 121.943Z" fill="#575A89"/>
<path opacity="0.1" d="M359.904 86.5824C359.904 86.5824 366.99 88.0942 360.645 93.2997C354.299 98.5053 332.406 115.059 332.406 115.059C332.406 115.059 340.097 121.913 338.505 129.94L363.984 115.73L368.516 92.9923C368.516 92.9923 369.025 86.1591 359.904 86.5824Z" fill="black"/>
<path opacity="0.1" d="M337.417 115.059L321.211 117.735C321.211 117.735 324.555 130.107 322.883 133.619C322.832 133.728 322.79 133.841 322.757 133.957L316.144 151.841L321.1 165.886L338.253 142.478L332.406 133.619C332.406 133.619 338.586 125.425 342.262 122.583C345.939 119.741 337.417 115.059 337.417 115.059Z" fill="black"/>
<path d="M337.417 114.369L321.211 117.04C321.211 117.04 324.555 129.411 322.883 132.924C322.832 133.033 322.79 133.146 322.757 133.261L316.144 151.146L321.1 165.19L338.253 141.768L332.406 132.908C332.406 132.908 338.586 124.715 342.262 121.872C345.939 119.03 337.417 114.369 337.417 114.369Z" fill="#DCE6F2"/>
<path d="M360.584 85.247C360.584 85.247 367.67 86.7588 361.32 91.9643C354.969 97.1699 332.406 115.059 332.406 115.059C332.406 115.059 340.762 120.577 339.175 128.6L364.654 114.394L369.186 91.6569C369.186 91.6569 369.69 84.8237 360.584 85.247Z" fill="#575A89"/>
<path opacity="0.1" d="M319.191 108.095C319.191 108.095 320.738 110.988 327.562 116.203C327.562 116.203 316.2 122.25 320.546 130.752L303.166 126.216L300.492 117.856L319.191 108.095Z" fill="black"/>
<path d="M318.521 107.43C318.521 107.43 320.067 110.322 326.892 115.538C326.892 115.538 315.53 121.555 319.876 130.081L302.501 125.546L299.827 117.191L318.521 107.43Z" fill="#575A89"/>
<path opacity="0.1" d="M363.817 121.943L352.456 148.47L342.454 166.077H310.353L300.995 142.004L304.783 117.04H311.597C311.486 122.865 313.611 129.709 313.475 132.253C313.243 136.436 319.71 159.002 319.71 159.002C319.71 159.002 333.242 137.101 338.586 135.151C341.945 133.926 349.061 123.737 353.891 116.319L363.817 121.943Z" fill="black"/>
<path d="M408.575 261.536L407.421 262.987C407.421 262.987 415.777 304.949 413.465 314.479C413.072 316.196 412.848 317.948 412.795 319.709V319.785C412.387 329.481 415.313 342.064 415.313 342.064C415.313 342.064 417.65 379.153 416.32 394.407H259.884C258.968 371.851 257.981 342.628 258.877 339.388C260.388 334.041 263.41 314.645 263.41 314.645L263.742 305.453C263.742 305.453 263.742 296.569 264.014 286.672C264.13 282.222 264.301 277.551 264.548 273.409C264.865 268.198 265.308 263.809 265.918 261.652C266.293 260.017 266.509 258.35 266.562 256.673C266.562 256.517 266.562 256.356 266.593 256.194C266.593 255.69 266.643 255.146 266.663 254.587C266.663 254.431 266.663 254.274 266.663 254.083C266.759 250.838 266.724 246.988 266.618 242.997C266.618 242.78 266.618 242.558 266.618 242.336C266.532 239.343 266.406 236.289 266.265 233.387C265.827 224.316 265.258 216.646 265.258 216.646L246.045 152.95L251.222 140.19L265.59 131.382L292.157 115.332C305.115 104.673 313.646 105.953 316.9 107.123C317.216 107.23 317.525 107.357 317.826 107.501C317.927 107.551 318.008 107.591 318.083 107.637C318.187 107.686 318.286 107.743 318.38 107.808C317.49 108.237 316.716 108.875 316.124 109.667C315.458 110.569 314.983 111.598 314.729 112.691C314.559 113.368 314.439 114.057 314.372 114.752C314.306 115.483 314.281 116.239 314.281 117C314.317 118.668 314.46 120.333 314.709 121.983C314.709 122.014 314.709 122.054 314.709 122.094C314.875 123.273 315.082 124.427 315.283 125.511C315.281 125.529 315.281 125.548 315.283 125.566C315.515 126.831 315.747 128 315.903 129.008C315.933 129.19 315.958 129.356 315.983 129.512C316.094 130.178 316.146 130.853 316.139 131.528C316.196 133.158 316.415 134.779 316.794 136.365C316.925 137.031 317.076 137.741 317.242 138.482C317.469 139.49 317.716 140.588 317.983 141.707C318.129 142.322 318.285 142.957 318.446 143.587C318.506 143.839 318.572 144.091 318.632 144.348L318.733 144.746C319.806 149.014 320.969 153.262 321.684 155.832C322.107 157.344 322.374 158.276 322.374 158.276C322.374 158.276 329.959 146.006 336.012 139.021C336.103 138.92 336.184 138.825 336.269 138.734C336.869 138.044 337.458 137.414 338.022 136.859C339.256 135.63 340.364 134.753 341.255 134.43C341.445 134.361 341.629 134.275 341.804 134.173C344.282 132.767 348.281 127.663 352.023 122.316C352.39 121.812 352.748 121.263 353.11 120.744C353.941 119.544 354.747 118.34 355.508 117.186C356.092 116.304 356.651 115.447 357.18 114.631C359.698 110.711 361.471 107.788 361.471 107.788L364.966 107.632L365.575 107.601H365.983L381.852 106.866C381.852 106.866 382.537 106.981 383.665 107.208C383.726 107.208 383.786 107.208 383.852 107.249C389.482 108.367 405.125 111.91 406.082 116.823C407.25 122.84 432.482 130.868 432.482 130.868C432.814 134.899 438.994 137.555 438.994 137.555C438.994 137.555 448.351 162.298 445.848 171.993C443.375 181.568 452.284 205.252 452.521 205.918L450.814 208.074L408.575 261.536Z" fill="#E8F5FF"/>
<path opacity="0.1" d="M359.899 84.8238C359.899 84.8238 375.345 80.4396 378.856 89.465C382.366 98.4903 390.218 134.939 390.218 134.939C390.218 134.939 369.831 138.784 364.487 134.939C361.353 132.657 357.474 131.642 353.624 132.097L342.096 139.953L338.692 138.946C338.692 138.946 357.134 111.512 361.143 102.189C365.152 92.8665 366.507 88.699 359.899 84.8238Z" fill="black"/>
<path d="M359.23 82.808C359.23 82.808 374.686 78.4239 378.211 87.4492C381.737 96.4745 389.573 132.924 389.573 132.924C389.573 132.924 369.191 136.769 363.843 132.924C360.71 130.642 356.833 129.626 352.985 130.081L341.447 137.938L338.042 136.93C338.042 136.93 356.485 109.496 360.494 100.173C364.503 90.8507 365.837 86.6933 359.23 82.808Z" fill="#E8F5FF"/>
<path opacity="0.1" d="M255.548 228.216C255.548 228.216 267.076 231.058 269.252 237.579C271.428 244.1 260.731 244.266 260.731 244.266C260.731 244.266 254.214 232.731 255.548 228.216Z" fill="black"/>
<path opacity="0.1" d="M298.487 276.362C298.487 276.362 270.254 334.207 276.771 339.725C283.288 345.243 298.487 276.362 298.487 276.362Z" fill="black"/>
<path opacity="0.1" d="M337.417 233.734C337.417 233.734 359.975 289.922 355.462 298.6C350.95 307.278 365.152 298.6 365.152 298.6L337.417 233.734Z" fill="black"/>
<path d="M368.829 289.237C368.829 289.237 292.64 292.916 314.865 316.656C337.09 340.396 382.699 317.663 382.699 317.663L368.829 289.237Z" fill="#FFB0B1"/>
<path opacity="0.1" d="M357.804 63.5428C357.811 69.0105 356.738 74.4256 354.647 79.477C353.947 79.5576 353.247 79.608 352.572 79.6382C351.564 77.426 352.103 74.8711 352.123 72.4371C352.144 70.0031 351.247 67.1408 348.905 66.4857C344.237 65.1705 341.013 73.9035 336.41 72.3262C332.885 71.1269 333.807 65.7752 331.777 62.6861C330.17 60.2421 326.952 59.5517 324.449 58.0197C319.126 54.7492 319.287 49.5185 316.814 44.5699C314.226 39.3845 308.756 40.9164 304.007 43.9753C300.401 46.3034 297.289 49.4227 293.431 51.2772C290.092 52.8897 286.34 53.4743 282.638 53.56C280.359 53.6483 278.08 53.4073 275.87 52.8444C278.469 43.0651 284.535 34.5658 292.935 28.9314C301.336 23.297 311.498 20.9121 321.526 22.2216C331.554 23.5311 340.764 28.4455 347.438 36.0484C354.112 43.6512 357.795 53.4235 357.799 63.5428H357.804Z" fill="black"/>
<path d="M304.022 42.64C300.411 44.9681 297.304 48.0824 293.446 49.9469C290.107 51.5545 286.355 52.139 282.653 52.2247C278.121 52.3255 273.241 51.5293 270.143 48.2537C267.298 45.2302 266.618 40.5789 267.822 36.613C269.025 32.6471 271.911 29.3565 275.3 26.9729C278.69 24.5893 282.623 22.9415 284.869 19.5299C286.058 17.7258 286.632 15.5992 287.619 13.6793C290.777 7.53641 297.878 4.21048 304.742 3.79726C311.607 3.38404 318.411 5.42999 324.948 7.64727C331.485 9.86455 338.072 12.3036 344.972 12.7621C348.044 12.9536 351.237 12.7621 354.088 13.9262C357.92 15.4833 360.433 19.2074 362.146 22.9969C364.064 27.2702 365.258 31.9366 365.057 36.6029C364.634 46.5656 358.056 56.3418 360.947 65.8862C361.713 68.431 363.148 71.0414 362.382 73.5862C361.264 77.3001 356.475 78.1467 352.602 78.3231C351.595 76.1109 352.134 73.5509 352.154 71.122C352.174 68.6931 351.277 65.8257 348.941 65.1706C344.267 63.8654 341.044 72.5834 336.451 71.0111C332.951 69.8067 333.857 64.4601 331.822 61.371C330.216 58.9219 326.993 58.2366 324.495 56.7046C319.171 53.4341 319.332 48.2034 316.86 43.2548C314.251 38.0442 308.776 39.5761 304.022 42.64Z" fill="#575A89"/>
<path d="M230.145 234.399L226.303 235.74C226.303 235.74 227.813 258.477 222.777 264.998C217.741 271.519 239.316 287.73 239.316 287.73C239.316 287.73 268.889 287.564 269.725 285.21C270.561 282.857 268.214 243.082 268.214 243.082C268.214 243.082 252.34 236.894 253.675 227.032C253.675 227.032 248.83 250.268 241.648 249.265C234.466 248.263 226.313 242.261 230.145 234.399Z" fill="#E8F5FF"/>
<path opacity="0.1" d="M242.963 256.3C248.562 256.3 253.101 252.147 253.101 247.023C253.101 241.899 248.562 237.746 242.963 237.746C237.364 237.746 232.825 241.899 232.825 247.023C232.825 252.147 237.364 256.3 242.963 256.3Z" fill="black"/>
<path d="M254.047 235.07C254.047 235.07 252.033 173.55 234.497 187.257C216.961 200.964 216.789 217.357 220.128 222.199C223.467 227.042 234.174 251.286 234.174 251.286C235.849 252.257 237.73 252.818 239.663 252.921C241.596 253.025 243.526 252.669 245.295 251.882C247.064 251.095 248.621 249.901 249.84 248.396C251.058 246.89 251.903 245.118 252.305 243.223L254.047 235.07Z" fill="#FFB0B1"/>
<path opacity="0.1" d="M363.44 79.2402C363.358 78.9699 363.201 78.7286 362.987 78.5448C362.12 77.7536 360.257 77.4764 357.447 77.7183L357.562 79.0487C361.309 78.7262 362.05 79.472 362.145 79.598V79.724L362.261 79.8903C362.729 80.5185 363.059 81.2375 363.233 82.0011C363.406 82.7648 363.418 83.5562 363.269 84.3248C362.448 88.4318 357.406 91.7023 357.356 91.7376L357.235 91.8082L357.16 91.9241C354.984 95.1542 342.68 104.27 339.462 106.629L339.18 106.306C337.74 107.556 325.079 118.647 324.394 122.895C323.951 125.561 320.949 126.594 319.861 126.882C318.713 126.01 314.986 123.042 313.047 119.716C311.229 116.586 318.547 110.479 319.191 108.095L318.184 107.062C318.078 107.445 308.681 116.234 311.294 120.724C313.39 124.327 317.217 127.411 318.557 128.429C318.129 132.319 315.464 155.162 311.37 160.574C306.283 167.302 302.008 201.206 302.481 213.043C302.899 223.56 300.154 243.425 290.988 251.956C289.401 253.498 287.487 254.661 285.388 255.359C283.289 256.057 281.06 256.272 278.866 255.988H278.755H278.644C278.513 255.988 265.218 257.348 254.047 247.925C244.907 240.23 239.729 227.672 238.652 210.589H238.43L238.339 205.615C240.818 205.228 243.05 203.895 244.566 201.896C246.083 199.897 246.766 197.387 246.472 194.894C246.179 192.402 244.931 190.12 242.991 188.529C241.051 186.937 238.57 186.16 236.07 186.361C233.569 186.561 231.244 187.724 229.582 189.604C227.92 191.484 227.052 193.935 227.158 196.443C227.265 198.951 228.339 201.319 230.154 203.051C231.97 204.783 234.386 205.744 236.894 205.731H237.005L237.095 210.675L236.652 210.705C237.76 228.342 243.199 241.389 252.768 249.447C260.041 255.477 269.331 258.519 278.76 257.958C279.429 258.031 280.102 258.068 280.775 258.069C285.097 258.091 289.255 256.418 292.358 253.408C302.013 244.413 304.949 223.817 304.49 212.942C303.987 200.399 308.474 167.715 312.977 161.763C317.388 155.923 320.063 133.165 320.531 128.756C322.127 128.308 325.738 126.892 326.353 123.213C326.796 120.552 335.252 112.353 340.454 107.813L340.298 107.631C343.098 105.586 351.806 99.1353 356.122 94.993C357.462 93.708 358.791 92.4229 360.181 91.1984C361.853 89.7168 363.979 87.3635 364.538 84.5818C364.728 83.6636 364.729 82.7161 364.54 81.7975C364.352 80.8789 363.977 80.0086 363.44 79.2402Z" fill="black"/>
<path d="M318.386 128.111C318.174 127.965 313.158 124.372 310.645 120.048C308.036 115.558 317.434 106.775 317.534 106.392L318.542 107.425C317.902 109.803 310.584 115.916 312.403 119.04C314.694 122.986 319.519 126.438 319.569 126.473L318.386 128.111Z" fill="#353146"/>
<path d="M338.808 107.606L338.022 106.523C338.183 106.407 354.002 94.9578 356.495 91.2539L356.576 91.143L356.691 91.0675C356.742 91.0322 361.783 87.7667 362.604 83.6547C362.755 82.8869 362.744 82.0959 362.57 81.3329C362.397 80.5699 362.065 79.8518 361.597 79.2252L361.481 79.0538V78.9329C361.38 78.8019 360.64 78.0611 356.893 78.3836L356.777 77.0482C359.592 76.8063 361.451 77.0835 362.317 77.8746C362.533 78.0603 362.691 78.3031 362.775 78.5751C363.32 79.3413 363.702 80.211 363.897 81.1305C364.093 82.0501 364.099 83 363.913 83.9218C363.354 86.7085 361.234 89.0618 359.557 90.5383C358.172 91.7629 356.837 93.058 355.503 94.3329C350.441 99.1857 339.362 107.208 338.808 107.606Z" fill="#E8F5FF"/>
<path d="M237.689 203.861L236.355 203.885L236.504 212.002L237.838 211.978L237.689 203.861Z" fill="#E8F5FF"/>
<path d="M236.244 205.091C241.626 205.091 245.989 200.725 245.989 195.34C245.989 189.955 241.626 185.589 236.244 185.589C230.862 185.589 226.499 189.955 226.499 195.34C226.499 200.725 230.862 205.091 236.244 205.091Z" fill="#587EEC"/>
<path d="M236.244 203.438C240.714 203.438 244.338 199.813 244.338 195.34C244.338 190.868 240.714 187.242 236.244 187.242C231.774 187.242 228.151 190.868 228.151 195.34C228.151 199.813 231.774 203.438 236.244 203.438Z" fill="#E8F5FF"/>
<path d="M280.14 257.419C279.467 257.42 278.795 257.385 278.126 257.313C268.697 257.869 259.409 254.827 252.134 248.802C242.565 240.739 237.136 227.707 236.018 210.055L238.032 209.929C239.11 227.012 244.287 239.575 253.433 247.265C264.603 256.663 277.894 255.328 278.025 255.328H278.136H278.247C280.441 255.611 282.671 255.395 284.77 254.697C286.87 253.999 288.785 252.837 290.374 251.296C299.535 242.765 302.28 222.9 301.862 212.383C301.358 200.536 305.634 166.631 310.725 159.909C315.182 154.018 317.947 127.466 317.978 127.199L318.053 126.443L318.798 126.312C318.844 126.312 323.195 125.486 323.739 122.23C324.444 117.987 337.085 106.896 338.52 105.641L339.835 107.153C334.612 111.688 326.156 119.892 325.733 122.558C325.119 126.247 321.508 127.658 319.916 128.101C319.413 132.515 316.759 155.268 312.362 161.108C307.86 167.06 303.372 199.744 303.876 212.287C304.309 223.162 301.403 243.762 291.749 252.752C288.64 255.77 284.471 257.446 280.14 257.419Z" fill="#353146"/>
<g opacity="0.1">
<path opacity="0.1" d="M362.095 51.63C362.921 48.5762 363.918 45.5022 364.613 42.4081C363.782 45.5173 362.78 48.5762 362.095 51.63Z" fill="black"/>
<path opacity="0.1" d="M353.67 75.627C352.662 73.4148 353.201 70.8549 353.221 68.4259C353.242 65.997 352.345 63.1548 350.008 62.4745C345.335 61.1694 342.111 69.8923 337.518 68.3151C333.993 67.1107 334.925 61.764 332.89 58.6749C331.283 56.2258 328.065 55.5405 325.567 54.0086C320.239 50.7381 320.4 45.5073 317.932 40.5587C315.339 35.3683 309.874 36.9002 305.12 39.9641C301.509 42.2922 298.402 45.4115 294.544 47.271C291.205 48.8786 287.453 49.4631 283.751 49.5488C279.244 49.6546 274.338 48.8534 271.241 45.5778C268.854 43.0582 267.993 39.3644 268.486 35.9024C268.401 36.1393 268.325 36.3761 268.25 36.613C267.041 40.5789 267.746 45.2402 270.571 48.2537C273.669 51.5292 278.574 52.3254 283.081 52.2246C286.788 52.139 290.535 51.5544 293.879 49.9469C297.747 48.0824 300.854 44.9681 304.455 42.6399C309.21 39.5761 314.679 38.0441 317.268 43.2346C319.735 48.1832 319.579 53.4139 324.903 56.6844C327.421 58.1962 330.619 58.9017 332.23 61.3508C334.245 64.4499 333.353 69.7865 336.859 70.9909C341.447 72.5632 344.67 63.8452 349.343 65.1504C351.68 65.8055 352.582 68.6779 352.557 71.1018C352.531 73.5257 352.008 76.0907 353.005 78.3029C356.878 78.1265 361.667 77.295 362.79 73.566C362.945 73.0308 363.016 72.475 363.002 71.9181C361.365 74.7452 357.155 75.4708 353.67 75.627Z" fill="black"/>
</g>
<path opacity="0.1" d="M444.69 199.795L450.537 205.983C450.537 205.983 455.216 240.084 457.552 243.274C459.889 246.464 465.409 259.152 460.227 268.682C460.227 268.682 458.555 273.867 459.557 276.039C460.559 278.211 452.043 289.081 452.043 289.081C452.043 289.081 440.847 299.109 438.505 300.616C436.163 302.122 423.805 314.156 419.629 314.322C415.454 314.489 414.09 319.674 414.09 319.674L390.53 320.511C390.53 320.511 377.516 319.83 374.686 321.67C374.686 321.67 376.197 301.775 361.657 288.733L380.201 282.046C380.201 282.046 387.221 279.022 389.392 275.863C390.757 273.926 392.695 272.465 394.932 271.685C394.932 271.685 400.109 268.006 400.275 266.001C400.441 263.995 406.606 261.536 406.606 261.536L403.116 231.729L404.954 182.243C404.954 182.243 410.801 140.78 423.165 143.123C435.529 145.466 444.69 199.795 444.69 199.795Z" fill="black"/>
<path d="M446.704 199.795L452.551 205.983C452.551 205.983 457.23 240.084 459.567 243.274C461.904 246.464 467.423 259.152 462.241 268.682C462.241 268.682 460.574 273.867 461.576 276.039C462.578 278.211 454.057 289.081 454.057 289.081C454.057 289.081 442.862 299.109 440.52 300.616C438.178 302.122 425.819 314.156 421.644 314.322C417.469 314.489 416.104 319.674 416.104 319.674L392.544 320.511C392.544 320.511 379.521 319.83 376.7 321.67C376.7 321.67 378.211 301.775 363.672 288.733L382.215 282.046C382.215 282.046 389.236 279.022 391.406 275.863C392.772 273.926 394.709 272.465 396.946 271.685C396.946 271.685 402.123 268.006 402.289 266.001C402.456 263.995 408.62 261.536 408.62 261.536L405.13 231.729L406.968 182.243C406.968 182.243 412.815 140.78 425.179 143.123C437.543 145.466 446.704 199.795 446.704 199.795Z" fill="#E8F5FF"/>
<path opacity="0.1" d="M424.968 249.784C424.968 249.784 442.177 245.249 446.689 250.792C451.202 256.336 424.968 249.784 424.968 249.784Z" fill="black"/>
<path opacity="0.1" d="M420.959 257.389C426.806 261.486 444.851 261.652 444.851 261.652L420.959 257.389Z" fill="black"/>
<path opacity="0.1" d="M429.813 277.868C430.316 278.035 442.217 290.744 447.213 286.899C452.209 283.054 429.813 277.868 429.813 277.868Z" fill="black"/>
<path opacity="0.1" d="M269.539 171.207C269.539 171.207 273.034 195.285 271.312 205.091C269.589 214.898 275.875 227.047 275.875 227.047L269.539 171.207Z" fill="black"/>
<path d="M192.162 180.998C188.133 184.158 185.192 191.636 183.061 199.855C179.345 214.192 178.131 230.817 178.131 230.817C178.131 230.817 146.05 223.459 148.387 220.118C149.857 218.017 147.883 202.183 146.236 190.704C145.254 183.921 144.378 178.655 144.378 178.655C144.378 178.655 203.191 172.301 192.162 180.998Z" fill="#FFB0B1"/>
<path opacity="0.1" d="M192.162 180.328C188.133 183.493 185.192 190.966 183.061 199.185C176.67 201.127 169.872 201.302 163.389 199.692C156.905 198.082 150.979 194.746 146.236 190.039C145.254 183.251 144.378 177.985 144.378 177.985C144.378 177.985 203.191 171.635 192.162 180.328Z" fill="black"/>
<path d="M209.406 162.318C209.409 171.083 206.314 179.566 200.667 186.267C195.02 192.967 187.186 197.453 178.552 198.93C169.917 200.407 161.039 198.78 153.489 194.337C145.938 189.894 140.201 182.921 137.294 174.653C134.388 166.385 134.498 157.354 137.605 149.159C140.713 140.965 146.618 134.134 154.275 129.877C161.932 125.619 170.847 124.21 179.443 125.897C188.039 127.584 195.761 132.26 201.242 139.097C206.525 145.682 209.404 153.873 209.406 162.318Z" fill="#FFB0B1"/>
<path opacity="0.1" d="M238.656 394.407H228.08L227.189 375.716L226.257 356.37C226.257 356.37 228.659 356.012 232.487 355.478L234.033 355.271H234.159C234.995 359.197 235.821 363.229 236.617 367.255C237.941 374.403 238.631 381.654 238.677 388.924C238.677 389.428 238.677 389.932 238.677 390.405C238.707 391.751 238.677 393.096 238.656 394.407Z" fill="black"/>
<path d="M236.627 394.407H103.992C104.566 393.101 104.949 392.31 104.949 392.31C104.949 392.31 115.561 345.858 120.954 326.205C120.956 326.188 120.956 326.171 120.954 326.155C121.628 323.485 122.442 320.852 123.392 318.268C123.453 318.092 123.533 317.924 123.629 317.764C126.298 313.42 129.642 308.739 124.963 302.052C120.285 295.365 121.941 265.94 121.941 265.94C121.941 265.94 127.622 240.86 133.636 227.486C134.548 225.414 135.843 223.533 137.453 221.942C137.976 221.43 138.535 220.955 139.125 220.521C139.574 220.184 140.041 219.873 140.525 219.589L140.621 219.529C143.147 218.096 145.952 217.224 148.845 216.974C150.9 216.759 152.975 216.816 155.015 217.145C164.765 218.576 172.571 220.97 178.776 223.696C195.592 231.089 200.683 240.996 200.784 241.203L200.824 241.288C201.499 242.865 211.37 265.925 214.926 276.684C215.847 279.486 216.351 281.456 216.15 281.995C215.142 284.666 223.835 318.102 223.835 318.102C223.835 318.102 227.864 334.228 231.893 353.13C232.069 353.916 232.235 354.702 232.397 355.498C233.117 358.93 233.832 362.427 234.522 365.92C235.859 373.117 236.548 380.419 236.582 387.74C236.656 390.021 236.671 392.243 236.627 394.407Z" fill="#EB5569"/>
<path opacity="0.1" d="M148.054 205.474C148.054 205.474 138.904 201.947 139.014 207.298C139.125 212.65 141.245 215.21 140.576 215.991C139.906 216.772 140.908 221.454 140.908 221.454C140.908 221.454 153.272 221.454 158.953 224.014C164.634 226.574 185.575 231.703 188.249 233.266C190.923 234.828 200.839 241.832 200.839 241.832L201.731 228.569C201.731 228.569 191.482 220.098 174.666 215.754C157.85 211.41 148.054 205.474 148.054 205.474Z" fill="black"/>
<path d="M148.054 204.804C148.054 204.804 138.904 201.276 139.014 206.628C139.125 211.98 141.245 214.54 140.576 215.321C139.906 216.102 140.908 220.783 140.908 220.783C140.908 220.783 153.272 220.783 158.953 223.348C164.634 225.913 185.575 231.038 188.249 232.595C190.923 234.153 200.839 241.162 200.839 241.162L201.741 227.939C201.741 227.939 191.492 219.468 174.676 215.124C157.86 210.78 148.054 204.804 148.054 204.804Z" fill="#EB5569"/>
<path opacity="0.1" d="M175.678 236.723C175.678 236.723 193.164 255.665 192.273 260.911C191.381 266.157 175.678 236.723 175.678 236.723Z" fill="black"/>
<path opacity="0.1" d="M147.274 305.151C147.274 305.151 134.457 316.968 130.679 317.638C126.902 318.309 133.575 320.536 137.916 318.757C142.258 316.978 151.514 312.297 151.514 312.297L147.274 305.151Z" fill="black"/>
<path d="M241.834 394.407H211.944C207.764 390.778 203.811 387.417 201.292 385.396C197.263 382.161 194.358 377.399 192.504 373.569C192.086 372.697 191.724 371.881 191.416 371.14C190.866 369.864 190.382 368.561 189.966 367.235L212.1 354.082C213.324 355.123 214.473 356.248 215.54 357.449L215.807 357.756C217.036 359.207 218.119 360.855 218.214 362.206C218.325 363.778 222.697 369.86 227.164 375.701C231.696 381.642 236.34 387.321 236.647 387.704C236.647 387.704 237.412 388.748 238.661 390.35C239.543 391.509 240.631 392.9 241.834 394.407Z" fill="#FFB0B1"/>
<path opacity="0.1" d="M201.242 139.097C200.18 141.495 199.228 143.985 199.087 146.656C198.689 154.366 199.334 171.605 190.802 175.475C186.577 177.38 182.054 173.198 177.421 173.097C174.087 173.026 171.03 175.143 168.995 177.788C166.961 180.434 165.696 183.573 164.221 186.567C162.878 189.284 161.33 191.895 159.593 194.378C159.073 195.137 158.501 195.86 157.88 196.539C152.678 194.343 148.046 190.987 144.336 186.728C140.626 182.469 137.937 177.419 136.473 171.962C135.01 166.506 134.81 160.787 135.89 155.241C136.97 149.696 139.301 144.47 142.704 139.963C146.108 135.455 150.496 131.784 155.532 129.23C160.568 126.676 166.121 125.306 171.767 125.225C177.413 125.143 183.002 126.352 188.11 128.76C193.218 131.167 197.71 134.71 201.242 139.117V139.097Z" fill="black"/>
<path d="M198.417 145.295C198.014 153.005 198.664 170.244 190.127 174.11C185.902 176.014 181.379 171.837 176.746 171.736C173.412 171.66 170.36 173.782 168.32 176.423C166.281 179.063 165.027 182.208 163.546 185.206C162.202 187.923 160.655 190.534 158.918 193.017C157.88 194.488 156.732 195.965 155.135 196.791C152.355 198.243 148.986 197.426 146.005 196.494C142.137 195.274 138.326 193.9 134.572 192.372C134.659 191.805 134.702 191.232 134.703 190.659C134.593 190.87 134.472 191.067 134.351 191.278L134.114 191.692C133.686 192.447 133.268 193.203 132.885 193.979C132.739 194.277 132.598 194.584 132.472 194.892C131.966 196.035 131.648 197.254 131.53 198.5C131.274 201.861 132.931 205.051 134.401 208.074C140.057 219.77 143.552 233.447 139.296 245.718C137.453 251.054 134.26 255.796 131.928 260.951C127.852 270.082 126.652 280.238 128.489 290.068C129.652 296.176 131.984 302.223 131.41 308.416C130.402 319.074 121.216 327.006 112.015 332.459C107.044 335.392 100.96 338.002 95.6824 335.684C99.0467 331.753 99.9129 326.316 100.638 321.186C102.622 307.193 104.612 293.194 106.606 279.188C107.402 273.615 108.196 268.042 108.988 262.468C110.469 251.997 111.97 241.409 111.043 230.872C110.368 223.106 108.464 214.862 111.829 207.832C113.606 204.108 116.774 201.024 117.761 197.013C118.572 193.753 117.817 190.286 118.351 186.965C118.643 185.454 119.137 183.989 119.821 182.611C120.692 180.74 121.828 179.006 123.195 177.461C121.846 177.068 120.587 176.528 119.821 175.4C121.987 173.989 122.314 170.809 121.332 168.42C120.35 166.032 118.386 164.212 116.618 162.328C114.85 160.443 113.148 158.246 112.927 155.676C112.498 150.783 117.384 146.993 118.245 142.166C119.116 137.252 115.671 132.475 115.948 127.501C116.271 121.489 121.79 117.12 127.24 114.586C135.463 110.777 144.546 109.212 153.569 110.05C160.912 110.746 168.018 113.018 175.341 113.9C179.758 114.404 184.235 114.455 188.621 115.231C193.008 116.007 197.405 117.644 200.492 120.865C208.631 129.356 198.88 136.345 198.417 145.295Z" fill="#575A89"/>
<path opacity="0.1" d="M191.608 373.574C189.039 372.46 184.366 373.126 176.343 370.682C168.32 368.238 166.774 357.191 166.774 357.191V357.156C166.678 356.904 165.933 355.261 160.887 349.507C155.312 343.152 143.26 311.057 143.26 311.057C143.26 311.057 132.573 299.572 132.91 295.339C133.248 291.106 131.012 279.844 131.233 267.245C131.455 254.647 155.291 246.292 155.291 246.292C201.187 238.154 190.379 291.096 189.155 295.108C187.931 299.119 194.282 309.953 194.282 309.953C193.386 314.67 197.959 321.972 197.959 321.972C197.959 321.972 199.066 328.432 199.293 330.886C199.306 331 199.331 331.111 199.369 331.219C200.104 333.532 206.097 335.628 208.535 336.903C211.098 338.244 219.342 349.945 219.342 349.945C221.12 358.537 194.166 374.703 191.608 373.574Z" fill="black"/>
<path d="M192.943 371.558C190.379 370.44 185.7 371.11 177.683 368.661C169.665 366.212 168.114 355.176 168.114 355.176V355.14C168.023 354.883 167.273 353.246 162.227 347.491C156.651 341.136 144.6 309.036 144.6 309.036C144.6 309.036 133.913 297.557 134.245 293.324C134.577 289.091 132.351 277.828 132.573 265.24C132.795 252.652 156.616 244.302 156.616 244.302C202.512 236.163 191.704 289.106 190.48 293.117C189.256 297.128 195.607 307.963 195.607 307.963C194.71 312.679 199.283 319.981 199.283 319.981C199.283 319.981 200.391 326.442 200.623 328.896C200.631 329.009 200.655 329.121 200.693 329.228C201.429 331.542 207.422 333.638 209.864 334.913C212.423 336.248 220.672 347.954 220.672 347.954C222.46 356.531 195.506 372.697 192.943 371.558Z" fill="#EB5569"/>
<path opacity="0.1" d="M157.523 271.942C157.523 271.942 177.572 293.107 182.805 293.107C188.037 293.107 157.523 271.942 157.523 271.942Z" fill="black"/>
<path d="M192.942 371.558C190.379 370.44 185.7 371.11 177.683 368.661C169.665 366.212 168.114 355.176 168.114 355.176V355.141C173.427 351.613 186.884 341.65 192.187 338.007C195.919 335.452 198.966 331.698 200.749 329.208C201.484 331.521 207.477 333.618 209.92 334.893C212.478 336.228 220.727 347.934 220.727 347.934C222.46 356.531 195.506 372.697 192.942 371.558Z" fill="#FF748E"/>
<g opacity="0.1">
<path opacity="0.1" d="M119.851 175.455C119.877 175.495 119.912 175.531 119.942 175.571C120.093 175.379 120.249 175.188 120.41 175.007C120.239 175.174 120.052 175.324 119.851 175.455Z" fill="black"/>
<path opacity="0.1" d="M131.536 198.555C131.747 195.758 133.243 193.294 134.643 190.835C133.726 190.482 132.81 190.124 131.903 189.752C131.989 189.186 132.033 188.615 132.034 188.043C130.619 190.563 129.078 193.042 128.861 195.879C128.604 199.246 130.261 202.43 131.732 205.454C137.393 217.145 140.883 230.822 136.627 243.097C134.779 248.429 131.591 253.176 129.259 258.331C125.184 267.46 123.986 277.615 125.824 287.443C126.978 293.556 129.315 299.598 128.74 305.791C127.733 316.449 118.552 324.381 109.346 329.828C105.584 332.056 101.187 334.097 96.9818 333.95C96.5925 334.577 96.1583 335.175 95.6824 335.739C100.965 338.073 107.044 335.447 112.015 332.504C121.226 327.062 130.428 319.15 131.435 308.472C132.009 302.279 129.672 296.236 128.514 290.124C126.675 280.297 127.87 270.143 131.938 261.012C134.255 255.862 137.478 251.11 139.306 245.778C143.562 233.503 140.067 219.826 134.411 208.135C132.946 205.091 131.279 201.921 131.536 198.555Z" fill="black"/>
<path opacity="0.1" d="M200.482 120.925C199.986 120.417 199.454 119.945 198.89 119.514C204.994 127.436 196.181 134.168 195.743 142.695C195.35 150.405 195.994 167.649 187.458 171.509C183.238 173.419 178.71 169.237 174.082 169.136C170.743 169.065 167.691 171.187 165.651 173.827C163.611 176.468 162.357 179.612 160.882 182.606C159.536 185.322 157.987 187.933 156.248 190.417C155.241 191.893 154.063 193.365 152.461 194.196C149.691 195.642 146.322 194.831 143.335 193.894C140.431 192.98 137.554 191.972 134.703 190.87C134.697 191.395 134.654 191.919 134.572 192.437C138.329 193.969 142.142 195.343 146.01 196.559C148.991 197.497 152.36 198.308 155.135 196.862C156.732 196.03 157.89 194.554 158.923 193.077C160.662 190.597 162.209 187.988 163.551 185.272C165.032 182.278 166.281 179.129 168.325 176.488C170.37 173.847 173.417 171.731 176.751 171.802C181.384 171.902 185.912 176.085 190.132 174.175C198.669 170.315 198.019 153.071 198.417 145.36C198.88 136.396 208.63 129.411 200.482 120.925Z" fill="black"/>
</g>
<path opacity="0.1" d="M134.119 191.697C133.691 192.453 133.273 193.208 132.89 193.984C132.744 194.282 132.603 194.589 132.477 194.897C129.838 192.236 123.412 185.912 119.826 183.951C120.698 182.081 121.834 180.347 123.2 178.801C123.2 178.801 131.747 183.321 134.119 191.697Z" fill="black"/>
<path d="M134.356 191.284C132.377 182.319 123.2 177.466 123.2 177.466C121.833 179.011 120.697 180.745 119.826 182.616C123.608 184.687 130.579 191.631 132.89 193.985L134.356 191.284Z" fill="#EB5569"/>
<defs>
<linearGradient id="paint0_linear_4_6" x1="364.094" y1="48.0723" x2="364.094" y2="38.8101" gradientUnits="userSpaceOnUse">
<stop stop-color="#808080" stop-opacity="0.25"/>
<stop offset="0.54" stop-color="#808080" stop-opacity="0.12"/>
<stop offset="1" stop-color="#808080" stop-opacity="0.1"/>
</linearGradient>
<linearGradient id="paint1_linear_4_6" x1="231046" y1="331838" x2="231046" y2="23136.5" gradientUnits="userSpaceOnUse">
<stop stop-color="#808080" stop-opacity="0.25"/>
<stop offset="0.54" stop-color="#808080" stop-opacity="0.12"/>
<stop offset="1" stop-color="#808080" stop-opacity="0.1"/>
</linearGradient>
</defs>
</svg>
